<mxfile host="app.diagrams.net" modified="2021-03-01T10:52:05.178Z" agent="5.0 (Windows NT 10.0; Win64; x64) AppleWebKit/537.36 (KHTML, like Gecko) Chrome/88.0.4324.190 Safari/537.36" etag="91tnwqp84P4Af0iRg1vk" version="14.4.3" type="github">
  <diagram id="EcrznbtYHoZiXO55YaKE" name="第 1 页">
    <mxGraphModel dx="1662" dy="762" grid="1" gridSize="10" guides="1" tooltips="1" connect="1" arrows="1" fold="1" page="1" pageScale="1" pageWidth="1169" pageHeight="827" math="0" shadow="0">
      <root>
        <mxCell id="0" />
        <mxCell id="1" parent="0" />
        <mxCell id="WxKx30RskJL5I7CAaJgA-5" value="" style="edgeStyle=orthogonalEdgeStyle;rounded=0;orthogonalLoop=1;jettySize=auto;html=1;" edge="1" parent="1" source="WxKx30RskJL5I7CAaJgA-6" target="WxKx30RskJL5I7CAaJgA-8">
          <mxGeometry relative="1" as="geometry" />
        </mxCell>
        <mxCell id="WxKx30RskJL5I7CAaJgA-6" value="原煤仓" style="rounded=1;whiteSpace=wrap;html=1;fontSize=12;glass=0;strokeWidth=1;shadow=0;" vertex="1" parent="1">
          <mxGeometry x="410" y="60" width="90" height="30" as="geometry" />
        </mxCell>
        <mxCell id="WxKx30RskJL5I7CAaJgA-7" value="" style="edgeStyle=orthogonalEdgeStyle;rounded=0;orthogonalLoop=1;jettySize=auto;html=1;" edge="1" parent="1" source="WxKx30RskJL5I7CAaJgA-8" target="WxKx30RskJL5I7CAaJgA-10">
          <mxGeometry relative="1" as="geometry" />
        </mxCell>
        <mxCell id="WxKx30RskJL5I7CAaJgA-8" value="原煤准备车间" style="rounded=1;whiteSpace=wrap;html=1;fontSize=12;glass=0;strokeWidth=1;shadow=0;" vertex="1" parent="1">
          <mxGeometry x="410" y="130" width="90" height="30" as="geometry" />
        </mxCell>
        <mxCell id="WxKx30RskJL5I7CAaJgA-9" value="" style="edgeStyle=orthogonalEdgeStyle;rounded=0;orthogonalLoop=1;jettySize=auto;html=1;" edge="1" parent="1" source="WxKx30RskJL5I7CAaJgA-10" target="WxKx30RskJL5I7CAaJgA-13">
          <mxGeometry relative="1" as="geometry" />
        </mxCell>
        <mxCell id="WxKx30RskJL5I7CAaJgA-10" value="两道除铁器" style="rounded=1;whiteSpace=wrap;html=1;fontSize=12;glass=0;strokeWidth=1;shadow=0;" vertex="1" parent="1">
          <mxGeometry x="410" y="200" width="90" height="30" as="geometry" />
        </mxCell>
        <mxCell id="WxKx30RskJL5I7CAaJgA-11" value="原煤带式输送机" style="text;html=1;strokeColor=none;fillColor=none;align=center;verticalAlign=middle;whiteSpace=wrap;rounded=0;" vertex="1" parent="1">
          <mxGeometry x="465" y="100" width="50" height="20" as="geometry" />
        </mxCell>
        <mxCell id="WxKx30RskJL5I7CAaJgA-52" value="" style="edgeStyle=orthogonalEdgeStyle;rounded=0;orthogonalLoop=1;jettySize=auto;html=1;" edge="1" parent="1" source="WxKx30RskJL5I7CAaJgA-13" target="WxKx30RskJL5I7CAaJgA-53">
          <mxGeometry relative="1" as="geometry">
            <mxPoint x="455" y="380" as="targetPoint" />
          </mxGeometry>
        </mxCell>
        <mxCell id="WxKx30RskJL5I7CAaJgA-13" value="分级筛" style="rounded=1;whiteSpace=wrap;html=1;fontSize=12;glass=0;strokeWidth=1;shadow=0;" vertex="1" parent="1">
          <mxGeometry x="410" y="270" width="90" height="30" as="geometry" />
        </mxCell>
        <mxCell id="WxKx30RskJL5I7CAaJgA-55" value="" style="edgeStyle=orthogonalEdgeStyle;rounded=0;orthogonalLoop=1;jettySize=auto;html=1;entryX=0;entryY=0.5;entryDx=0;entryDy=0;" edge="1" parent="1" source="WxKx30RskJL5I7CAaJgA-53" target="WxKx30RskJL5I7CAaJgA-56">
          <mxGeometry relative="1" as="geometry">
            <mxPoint x="560" y="365" as="targetPoint" />
          </mxGeometry>
        </mxCell>
        <mxCell id="WxKx30RskJL5I7CAaJgA-60" value="" style="edgeStyle=orthogonalEdgeStyle;rounded=0;orthogonalLoop=1;jettySize=auto;html=1;entryX=0.5;entryY=0;entryDx=0;entryDy=0;" edge="1" parent="1" source="WxKx30RskJL5I7CAaJgA-53" target="WxKx30RskJL5I7CAaJgA-62">
          <mxGeometry relative="1" as="geometry">
            <mxPoint x="455" y="450" as="targetPoint" />
          </mxGeometry>
        </mxCell>
        <mxCell id="WxKx30RskJL5I7CAaJgA-53" value="&amp;lt;13mm" style="rhombus;whiteSpace=wrap;html=1;" vertex="1" parent="1">
          <mxGeometry x="422.5" y="340" width="65" height="50" as="geometry" />
        </mxCell>
        <mxCell id="WxKx30RskJL5I7CAaJgA-56" value="产品仓" style="rounded=1;whiteSpace=wrap;html=1;fontSize=12;glass=0;strokeWidth=1;shadow=0;" vertex="1" parent="1">
          <mxGeometry x="560" y="350" width="90" height="30" as="geometry" />
        </mxCell>
        <mxCell id="WxKx30RskJL5I7CAaJgA-58" value="是" style="text;html=1;strokeColor=none;fillColor=none;align=center;verticalAlign=middle;whiteSpace=wrap;rounded=0;" vertex="1" parent="1">
          <mxGeometry x="500" y="340" width="40" height="20" as="geometry" />
        </mxCell>
        <mxCell id="WxKx30RskJL5I7CAaJgA-61" value="否" style="text;html=1;strokeColor=none;fillColor=none;align=center;verticalAlign=middle;whiteSpace=wrap;rounded=0;" vertex="1" parent="1">
          <mxGeometry x="460" y="404" width="40" height="20" as="geometry" />
        </mxCell>
        <mxCell id="WxKx30RskJL5I7CAaJgA-64" value="" style="edgeStyle=orthogonalEdgeStyle;rounded=0;orthogonalLoop=1;jettySize=auto;html=1;" edge="1" parent="1" source="WxKx30RskJL5I7CAaJgA-62" target="WxKx30RskJL5I7CAaJgA-63">
          <mxGeometry relative="1" as="geometry" />
        </mxCell>
        <mxCell id="WxKx30RskJL5I7CAaJgA-62" value="刮板运输机" style="rounded=1;whiteSpace=wrap;html=1;fontSize=12;glass=0;strokeWidth=1;shadow=0;" vertex="1" parent="1">
          <mxGeometry x="410" y="450" width="90" height="30" as="geometry" />
        </mxCell>
        <mxCell id="WxKx30RskJL5I7CAaJgA-66" value="" style="edgeStyle=orthogonalEdgeStyle;rounded=0;orthogonalLoop=1;jettySize=auto;html=1;entryX=0.5;entryY=0;entryDx=0;entryDy=0;" edge="1" parent="1" source="WxKx30RskJL5I7CAaJgA-63" target="WxKx30RskJL5I7CAaJgA-67">
          <mxGeometry relative="1" as="geometry">
            <mxPoint x="455" y="610" as="targetPoint" />
          </mxGeometry>
        </mxCell>
        <mxCell id="WxKx30RskJL5I7CAaJgA-63" value="脱泥筛" style="rounded=1;whiteSpace=wrap;html=1;fontSize=12;glass=0;strokeWidth=1;shadow=0;" vertex="1" parent="1">
          <mxGeometry x="410" y="530" width="90" height="30" as="geometry" />
        </mxCell>
        <mxCell id="WxKx30RskJL5I7CAaJgA-69" value="" style="edgeStyle=orthogonalEdgeStyle;rounded=0;orthogonalLoop=1;jettySize=auto;html=1;entryX=0;entryY=0.5;entryDx=0;entryDy=0;" edge="1" parent="1" source="WxKx30RskJL5I7CAaJgA-67" target="WxKx30RskJL5I7CAaJgA-71">
          <mxGeometry relative="1" as="geometry">
            <mxPoint x="567.5" y="635" as="targetPoint" />
          </mxGeometry>
        </mxCell>
        <mxCell id="WxKx30RskJL5I7CAaJgA-74" value="" style="edgeStyle=orthogonalEdgeStyle;rounded=0;orthogonalLoop=1;jettySize=auto;html=1;entryX=0.5;entryY=0;entryDx=0;entryDy=0;" edge="1" parent="1" source="WxKx30RskJL5I7CAaJgA-67" target="WxKx30RskJL5I7CAaJgA-75">
          <mxGeometry relative="1" as="geometry">
            <mxPoint x="455" y="740" as="targetPoint" />
          </mxGeometry>
        </mxCell>
        <mxCell id="WxKx30RskJL5I7CAaJgA-67" value="&amp;lt;3mm" style="rhombus;whiteSpace=wrap;html=1;" vertex="1" parent="1">
          <mxGeometry x="422.5" y="610" width="65" height="50" as="geometry" />
        </mxCell>
        <mxCell id="WxKx30RskJL5I7CAaJgA-70" value="主洗车间" style="rounded=1;whiteSpace=wrap;html=1;fontSize=12;glass=0;strokeWidth=1;shadow=0;" vertex="1" parent="1">
          <mxGeometry x="685" y="620" width="90" height="30" as="geometry" />
        </mxCell>
        <mxCell id="WxKx30RskJL5I7CAaJgA-72" value="" style="edgeStyle=orthogonalEdgeStyle;rounded=0;orthogonalLoop=1;jettySize=auto;html=1;" edge="1" parent="1" source="WxKx30RskJL5I7CAaJgA-71" target="WxKx30RskJL5I7CAaJgA-70">
          <mxGeometry relative="1" as="geometry" />
        </mxCell>
        <mxCell id="WxKx30RskJL5I7CAaJgA-71" value="带式输送机" style="rounded=1;whiteSpace=wrap;html=1;fontSize=12;glass=0;strokeWidth=1;shadow=0;" vertex="1" parent="1">
          <mxGeometry x="540" y="620" width="90" height="30" as="geometry" />
        </mxCell>
        <mxCell id="WxKx30RskJL5I7CAaJgA-77" value="" style="edgeStyle=orthogonalEdgeStyle;rounded=0;orthogonalLoop=1;jettySize=auto;html=1;entryX=0.5;entryY=0;entryDx=0;entryDy=0;" edge="1" parent="1" source="WxKx30RskJL5I7CAaJgA-75" target="WxKx30RskJL5I7CAaJgA-78">
          <mxGeometry relative="1" as="geometry">
            <mxPoint x="455" y="820" as="targetPoint" />
          </mxGeometry>
        </mxCell>
        <mxCell id="WxKx30RskJL5I7CAaJgA-75" value="浅槽分选机" style="rounded=1;whiteSpace=wrap;html=1;fontSize=12;glass=0;strokeWidth=1;shadow=0;" vertex="1" parent="1">
          <mxGeometry x="410" y="710" width="90" height="30" as="geometry" />
        </mxCell>
        <mxCell id="WxKx30RskJL5I7CAaJgA-80" value="" style="edgeStyle=orthogonalEdgeStyle;rounded=0;orthogonalLoop=1;jettySize=auto;html=1;entryX=0.5;entryY=0;entryDx=0;entryDy=0;" edge="1" parent="1" source="WxKx30RskJL5I7CAaJgA-78" target="WxKx30RskJL5I7CAaJgA-81">
          <mxGeometry relative="1" as="geometry">
            <mxPoint x="455" y="900" as="targetPoint" />
          </mxGeometry>
        </mxCell>
        <mxCell id="WxKx30RskJL5I7CAaJgA-83" value="" style="edgeStyle=orthogonalEdgeStyle;rounded=0;orthogonalLoop=1;jettySize=auto;html=1;entryX=0;entryY=0.5;entryDx=0;entryDy=0;" edge="1" parent="1" source="WxKx30RskJL5I7CAaJgA-78" target="WxKx30RskJL5I7CAaJgA-84">
          <mxGeometry relative="1" as="geometry">
            <mxPoint x="570" y="815" as="targetPoint" />
          </mxGeometry>
        </mxCell>
        <mxCell id="WxKx30RskJL5I7CAaJgA-78" value="&amp;lt;150mm" style="rhombus;whiteSpace=wrap;html=1;" vertex="1" parent="1">
          <mxGeometry x="422.5" y="790" width="65" height="50" as="geometry" />
        </mxCell>
        <mxCell id="WxKx30RskJL5I7CAaJgA-90" value="" style="edgeStyle=orthogonalEdgeStyle;rounded=0;orthogonalLoop=1;jettySize=auto;html=1;" edge="1" parent="1" source="WxKx30RskJL5I7CAaJgA-81" target="WxKx30RskJL5I7CAaJgA-89">
          <mxGeometry relative="1" as="geometry" />
        </mxCell>
        <mxCell id="WxKx30RskJL5I7CAaJgA-81" value="脱介筛" style="rounded=1;whiteSpace=wrap;html=1;fontSize=12;glass=0;strokeWidth=1;shadow=0;" vertex="1" parent="1">
          <mxGeometry x="410" y="880" width="90" height="30" as="geometry" />
        </mxCell>
        <mxCell id="WxKx30RskJL5I7CAaJgA-86" value="" style="edgeStyle=orthogonalEdgeStyle;rounded=0;orthogonalLoop=1;jettySize=auto;html=1;" edge="1" parent="1" source="WxKx30RskJL5I7CAaJgA-84" target="WxKx30RskJL5I7CAaJgA-85">
          <mxGeometry relative="1" as="geometry" />
        </mxCell>
        <mxCell id="WxKx30RskJL5I7CAaJgA-84" value="带式输送机" style="rounded=1;whiteSpace=wrap;html=1;fontSize=12;glass=0;strokeWidth=1;shadow=0;" vertex="1" parent="1">
          <mxGeometry x="540" y="800" width="90" height="30" as="geometry" />
        </mxCell>
        <mxCell id="WxKx30RskJL5I7CAaJgA-85" value="矸石仓" style="rounded=1;whiteSpace=wrap;html=1;fontSize=12;glass=0;strokeWidth=1;shadow=0;" vertex="1" parent="1">
          <mxGeometry x="685" y="800" width="90" height="30" as="geometry" />
        </mxCell>
        <mxCell id="WxKx30RskJL5I7CAaJgA-87" value="是" style="text;html=1;strokeColor=none;fillColor=none;align=center;verticalAlign=middle;whiteSpace=wrap;rounded=0;" vertex="1" parent="1">
          <mxGeometry x="487.5" y="610" width="40" height="20" as="geometry" />
        </mxCell>
        <mxCell id="WxKx30RskJL5I7CAaJgA-88" value="否" style="text;html=1;strokeColor=none;fillColor=none;align=center;verticalAlign=middle;whiteSpace=wrap;rounded=0;" vertex="1" parent="1">
          <mxGeometry x="450" y="670" width="40" height="20" as="geometry" />
        </mxCell>
        <mxCell id="WxKx30RskJL5I7CAaJgA-92" value="" style="edgeStyle=orthogonalEdgeStyle;rounded=0;orthogonalLoop=1;jettySize=auto;html=1;entryX=0.5;entryY=0;entryDx=0;entryDy=0;" edge="1" parent="1" source="WxKx30RskJL5I7CAaJgA-89" target="WxKx30RskJL5I7CAaJgA-93">
          <mxGeometry relative="1" as="geometry">
            <mxPoint x="455" y="1100" as="targetPoint" />
          </mxGeometry>
        </mxCell>
        <mxCell id="WxKx30RskJL5I7CAaJgA-89" value="离心机脱水" style="rounded=1;whiteSpace=wrap;html=1;fontSize=12;glass=0;strokeWidth=1;shadow=0;" vertex="1" parent="1">
          <mxGeometry x="410" y="940" width="90" height="30" as="geometry" />
        </mxCell>
        <mxCell id="WxKx30RskJL5I7CAaJgA-100" value="" style="edgeStyle=orthogonalEdgeStyle;rounded=0;orthogonalLoop=1;jettySize=auto;html=1;entryX=0;entryY=0.5;entryDx=0;entryDy=0;" edge="1" parent="1" source="WxKx30RskJL5I7CAaJgA-93" target="WxKx30RskJL5I7CAaJgA-98">
          <mxGeometry relative="1" as="geometry">
            <mxPoint x="550" y="1025" as="targetPoint" />
          </mxGeometry>
        </mxCell>
        <mxCell id="WxKx30RskJL5I7CAaJgA-104" value="" style="edgeStyle=orthogonalEdgeStyle;rounded=0;orthogonalLoop=1;jettySize=auto;html=1;entryX=0.5;entryY=0;entryDx=0;entryDy=0;" edge="1" parent="1" source="WxKx30RskJL5I7CAaJgA-93" target="WxKx30RskJL5I7CAaJgA-106">
          <mxGeometry relative="1" as="geometry">
            <mxPoint x="455" y="1080" as="targetPoint" />
          </mxGeometry>
        </mxCell>
        <mxCell id="WxKx30RskJL5I7CAaJgA-93" value="&amp;lt;50mm" style="rhombus;whiteSpace=wrap;html=1;" vertex="1" parent="1">
          <mxGeometry x="422.5" y="1000" width="65" height="50" as="geometry" />
        </mxCell>
        <mxCell id="WxKx30RskJL5I7CAaJgA-102" value="" style="edgeStyle=orthogonalEdgeStyle;rounded=0;orthogonalLoop=1;jettySize=auto;html=1;" edge="1" parent="1" source="WxKx30RskJL5I7CAaJgA-98" target="WxKx30RskJL5I7CAaJgA-101">
          <mxGeometry relative="1" as="geometry" />
        </mxCell>
        <mxCell id="WxKx30RskJL5I7CAaJgA-98" value="带式输送机" style="rounded=1;whiteSpace=wrap;html=1;fontSize=12;glass=0;strokeWidth=1;shadow=0;" vertex="1" parent="1">
          <mxGeometry x="540" y="1010" width="90" height="30" as="geometry" />
        </mxCell>
        <mxCell id="WxKx30RskJL5I7CAaJgA-101" value="精煤仓" style="rounded=1;whiteSpace=wrap;html=1;fontSize=12;glass=0;strokeWidth=1;shadow=0;" vertex="1" parent="1">
          <mxGeometry x="685" y="1010" width="90" height="30" as="geometry" />
        </mxCell>
        <mxCell id="WxKx30RskJL5I7CAaJgA-107" value="" style="edgeStyle=orthogonalEdgeStyle;rounded=0;orthogonalLoop=1;jettySize=auto;html=1;entryX=0.5;entryY=1;entryDx=0;entryDy=0;" edge="1" parent="1" source="WxKx30RskJL5I7CAaJgA-106" target="WxKx30RskJL5I7CAaJgA-101">
          <mxGeometry relative="1" as="geometry">
            <mxPoint x="567.5" y="1105" as="targetPoint" />
          </mxGeometry>
        </mxCell>
        <mxCell id="WxKx30RskJL5I7CAaJgA-112" value="" style="edgeStyle=orthogonalEdgeStyle;rounded=0;orthogonalLoop=1;jettySize=auto;html=1;entryX=0.5;entryY=0;entryDx=0;entryDy=0;" edge="1" parent="1" source="WxKx30RskJL5I7CAaJgA-106" target="WxKx30RskJL5I7CAaJgA-113">
          <mxGeometry relative="1" as="geometry">
            <mxPoint x="455" y="1190" as="targetPoint" />
          </mxGeometry>
        </mxCell>
        <mxCell id="WxKx30RskJL5I7CAaJgA-106" value="是否可&lt;br&gt;破碎" style="rhombus;whiteSpace=wrap;html=1;" vertex="1" parent="1">
          <mxGeometry x="422.5" y="1080" width="65" height="50" as="geometry" />
        </mxCell>
        <mxCell id="WxKx30RskJL5I7CAaJgA-108" value="是" style="text;html=1;strokeColor=none;fillColor=none;align=center;verticalAlign=middle;whiteSpace=wrap;rounded=0;" vertex="1" parent="1">
          <mxGeometry x="487.5" y="1000" width="40" height="20" as="geometry" />
        </mxCell>
        <mxCell id="WxKx30RskJL5I7CAaJgA-109" value="是" style="text;html=1;strokeColor=none;fillColor=none;align=center;verticalAlign=middle;whiteSpace=wrap;rounded=0;" vertex="1" parent="1">
          <mxGeometry x="565" y="1080" width="40" height="20" as="geometry" />
        </mxCell>
        <mxCell id="WxKx30RskJL5I7CAaJgA-110" value="否" style="text;html=1;strokeColor=none;fillColor=none;align=center;verticalAlign=middle;whiteSpace=wrap;rounded=0;" vertex="1" parent="1">
          <mxGeometry x="460" y="1050" width="40" height="20" as="geometry" />
        </mxCell>
        <mxCell id="WxKx30RskJL5I7CAaJgA-117" value="" style="edgeStyle=orthogonalEdgeStyle;rounded=0;orthogonalLoop=1;jettySize=auto;html=1;" edge="1" parent="1" source="WxKx30RskJL5I7CAaJgA-113" target="WxKx30RskJL5I7CAaJgA-116">
          <mxGeometry relative="1" as="geometry" />
        </mxCell>
        <mxCell id="WxKx30RskJL5I7CAaJgA-113" value="带式输送机" style="rounded=1;whiteSpace=wrap;html=1;fontSize=12;glass=0;strokeWidth=1;shadow=0;" vertex="1" parent="1">
          <mxGeometry x="410" y="1160" width="90" height="30" as="geometry" />
        </mxCell>
        <mxCell id="WxKx30RskJL5I7CAaJgA-116" value="块精煤仓" style="rounded=1;whiteSpace=wrap;html=1;fontSize=12;glass=0;strokeWidth=1;shadow=0;" vertex="1" parent="1">
          <mxGeometry x="410" y="1220" width="90" height="30" as="geometry" />
        </mxCell>
        <mxCell id="WxKx30RskJL5I7CAaJgA-118" value="否" style="text;html=1;strokeColor=none;fillColor=none;align=center;verticalAlign=middle;whiteSpace=wrap;rounded=0;" vertex="1" parent="1">
          <mxGeometry x="460" y="1130" width="40" height="20" as="geometry" />
        </mxCell>
      </root>
    </mxGraphModel>
  </diagram>
</mxfile>
